<svg xmlns:ns0="http://www.w3.org/2000/svg" width="344" height="344" viewBox="0 0 344 344" fill="none">
<rect width="344" height="344" fill="#000311" rx="20" ry="20" />
<path fill-rule="evenodd" clip-rule="evenodd" d="M86.6751 169.513C67.5381 169.513 52.0244 185.026 52.0244 204.163C52.0244 223.3 67.5381 238.814 86.6751 238.814H252.053C260.375 238.814 267.122 245.561 267.122 253.883C267.122 262.205 260.375 268.952 252.053 268.952H86.6751C50.8935 268.952 21.8867 239.945 21.8867 204.163C21.8867 168.382 50.8935 139.375 86.6751 139.375H108V169.513H86.6751Z" fill="url(#paint0_linear_2545_3018)" />
<path fill-rule="evenodd" clip-rule="evenodd" d="M257.325 169.513C276.462 169.513 291.976 185.026 291.976 204.163C291.976 223.3 276.462 238.814 257.325 238.814H186.987C178.665 238.814 171.919 245.561 171.919 253.883C171.919 262.205 178.665 268.952 186.987 268.952H257.325C293.106 268.952 322.113 239.945 322.113 204.163C322.113 168.382 293.107 139.375 257.325 139.375H236V169.513H257.325Z" fill="url(#paint1_linear_2545_3018)" />
<path fill-rule="evenodd" clip-rule="evenodd" d="M106.151 169.513C97.8286 169.513 91.082 162.766 91.082 154.444C91.082 110.595 126.629 75.0482 170.478 75.0482L172.874 75.0482C216.723 75.0482 252.27 110.595 252.27 154.444C252.27 162.766 245.523 169.513 237.201 169.513C228.879 169.513 222.132 162.766 222.132 154.444C222.132 127.239 200.079 105.186 172.874 105.186L170.478 105.186C143.273 105.186 121.22 127.239 121.22 154.444C121.22 162.766 114.473 169.513 106.151 169.513Z" fill="url(#paint2_linear_2545_3018)" />
<defs>
<linearGradient id="paint0_linear_2545_3018" x1="162.676" y1="174.673" x2="98.5472" y2="327.148" gradientUnits="userSpaceOnUse">
<stop offset="0.107644" stop-color="#07EEFD" />
<stop offset="0.501639" stop-color="#0058DC" />
<stop offset="1" stop-color="#0058DC" />
</linearGradient>
<linearGradient id="paint1_linear_2545_3018" x1="290.868" y1="253.987" x2="199.116" y2="171.393" gradientUnits="userSpaceOnUse">
<stop stop-color="#F9AB6D" />
<stop offset="0.462942" stop-color="#D15EED" />
<stop offset="0.892992" stop-color="#484DFF" />
</linearGradient>
<linearGradient id="paint2_linear_2545_3018" x1="233.655" y1="149.861" x2="194.266" y2="63.3185" gradientUnits="userSpaceOnUse">
<stop stop-color="#F9AB6D" />
<stop offset="0.462942" stop-color="#D15EED" />
<stop offset="0.892992" stop-color="#484DFF" />
</linearGradient>
</defs>
</svg>
